<?xml version="1.0" standalone="no"?>
<!DOCTYPE svg PUBLIC "-//W3C//DTD SVG 20010904//EN"
 "http://www.w3.org/TR/2001/REC-SVG-20010904/DTD/svg10.dtd">
<svg version="1.0" xmlns="http://www.w3.org/2000/svg"
 width="700.000000pt" height="700.000000pt" viewBox="0 0 700.000000 700.000000"
 preserveAspectRatio="xMidYMid meet">
<metadata>
Created by potrace 1.14, written by Peter Selinger 2001-2017
</metadata>
<g transform="translate(0.000000,700.000000) scale(0.100000,-0.100000)"
fill="#000000" stroke="none">
<path d="M2453 6798 c-61 -106 -146 -255 -189 -330 l-79 -137 -757 -1 -758 0
-2 -757 -3 -758 -70 -41 c-38 -23 -185 -107 -325 -188 -140 -81 -256 -149
-259 -151 -2 -2 34 -68 80 -147 45 -79 172 -298 282 -488 110 -190 208 -361
219 -380 11 -19 33 -58 49 -87 l29 -51 -2 -269 -3 -268 -84 145 c-46 80 -108
187 -138 238 l-55 93 -189 -328 c-104 -180 -189 -330 -189 -333 1 -3 78 -49
173 -103 95 -54 179 -102 187 -107 8 -5 79 -46 158 -91 l142 -81 0 -757 0
-758 723 -1 c397 0 738 -1 757 -1 35 -1 36 -2 140 -183 58 -99 118 -204 134
-232 15 -28 48 -84 72 -123 24 -40 44 -77 44 -81 0 -5 8 -16 18 -24 15 -14 32
-7 182 82 171 100 624 362 673 389 16 9 36 21 46 26 9 6 70 41 134 79 l118 68
262 1 c156 0 262 -3 262 -9 1 -5 -8 -14 -20 -20 -19 -10 -427 -245 -433 -249
-2 -2 158 -97 258 -153 19 -11 117 -67 218 -125 l182 -106 48 82 c26 45 52 89
57 99 6 9 17 29 26 45 19 33 27 48 148 258 51 88 97 164 101 169 5 5 326 10
762 10 l753 1 1 747 c1 411 4 753 7 761 3 8 29 26 59 42 29 15 60 33 69 41 8
8 18 14 22 14 3 0 88 48 189 106 101 59 213 124 250 146 l67 39 -20 37 c-12
20 -25 42 -29 47 -4 6 -20 32 -35 60 -48 87 -287 500 -294 507 -3 4 -31 -36
-61 -89 -30 -53 -67 -117 -82 -142 -15 -25 -31 -53 -35 -61 -28 -56 -98 -169
-101 -165 -3 2 -5 124 -5 269 l0 265 135 233 c75 128 203 350 286 493 82 143
159 276 170 295 11 19 32 56 46 82 l25 47 -42 21 c-23 12 -55 29 -72 39 -16
10 -86 51 -155 90 -69 39 -132 76 -140 81 -8 5 -68 39 -132 76 -109 63 -118
70 -119 98 0 17 -1 358 -1 759 l-1 727 -758 0 -757 0 -53 93 c-157 276 -313
544 -323 555 -10 10 -48 -8 -192 -91 -98 -58 -246 -143 -327 -190 l-148 -85
93 -55 c51 -30 158 -92 238 -138 l145 -84 -269 -3 -269 -2 -176 101 c-97 56
-195 112 -218 125 -23 13 -108 63 -190 110 -81 48 -173 100 -203 117 -30 16
-59 33 -65 37 -13 10 -187 110 -191 110 -2 0 -25 14 -51 30 -26 17 -50 30 -53
30 -3 0 -56 -87 -117 -192z"/>
</g>
</svg>
