<svg width="185" height="38" viewBox="0 0 185 38" fill="none" xmlns="http://www.w3.org/2000/svg">
<path fill-rule="evenodd" clip-rule="evenodd" d="M34.4025 10.1075V11.8321L38 13.9091L34.4025 20.1402V23.1273L35.923 20.4936L38 24.091L34.4025 26.168V27.8927L34.4025 34.4026H26.1681L24.091 38.0002L20.4934 35.9231L23.1271 34.4026H20.1399L13.909 38L11.832 34.4026L3.59742 34.4026L3.59742 26.1682L0 24.0912L2.07706 20.4936L3.59742 23.127L3.59742 20.1398L2.92e-05 13.909L3.59742 11.832L3.59742 3.59748L11.8321 3.59748L13.909 0.000180541L17.5063 2.07709L20.1397 3.59748L23.1268 3.59748L20.4934 2.07709L24.091 0L26.1681 3.59748H34.4025V10.1075Z" fill="black"/>
<path d="M184.301 4L174.472 34H164.931L155.143 4H164.253L168.337 19.2052C168.487 19.7798 168.658 20.5185 168.85 21.4213C169.055 22.3105 169.24 23.1997 169.404 24.0889C169.582 24.9781 169.691 25.7031 169.732 26.264C169.787 25.7031 169.889 24.985 170.04 24.1094C170.19 23.2339 170.355 22.3584 170.532 21.4829C170.724 20.5937 170.902 19.8618 171.066 19.2873L175.231 4H184.301Z" fill="black"/>
<path d="M153.133 34H135.321V4H153.133V10.5048H143.427V15.2244H152.414V21.7291H143.427V27.3926H153.133V34Z" fill="black"/>
<path d="M129.924 18.3639C129.924 21.8523 129.274 24.7524 127.975 27.0643C126.675 29.3762 124.842 31.1135 122.475 32.2763C120.122 33.4254 117.352 34 114.165 34H104.459V4H114.842C118.07 4 120.806 4.55404 123.05 5.66211C125.293 6.77018 126.997 8.39124 128.159 10.5253C129.336 12.6594 129.924 15.2722 129.924 18.3639ZM121.511 18.6512C121.511 16.8317 121.265 15.3269 120.772 14.1368C120.293 12.933 119.568 12.0369 118.597 11.4487C117.626 10.8468 116.402 10.5458 114.924 10.5458H112.564V27.3516H114.37C116.832 27.3516 118.638 26.6402 119.787 25.2175C120.936 23.7811 121.511 21.5923 121.511 18.6512Z" fill="black"/>
<path d="M87.264 15.1218L92.435 4H101.218L91.3475 22.2832V34H83.1806V22.5294L73.3105 4H82.1341L87.264 15.1218Z" fill="black"/>
<path d="M60.383 4C64.186 4 67.0315 4.82763 68.9193 6.4829C70.8208 8.13817 71.7715 10.4911 71.7715 13.5417C71.7715 14.9097 71.5732 16.223 71.1765 17.4815C70.7934 18.7401 70.1573 19.8618 69.2681 20.8468C68.3926 21.8317 67.223 22.6115 65.7592 23.186C64.3092 23.7606 62.5171 24.0479 60.383 24.0479H58.1053V34H50V4H60.383ZM60.1984 10.5458H58.1053V17.4405H59.7059C60.4036 17.4405 61.0533 17.3242 61.6553 17.0917C62.2572 16.8454 62.736 16.4555 63.0917 15.922C63.461 15.3748 63.6457 14.6498 63.6457 13.7469C63.6457 12.803 63.3652 12.0369 62.8044 11.4487C62.2435 10.8468 61.3748 10.5458 60.1984 10.5458Z" fill="black"/>
</svg>
