<svg width="1001" height="1001" viewBox="0 0 1001 1001" fill="none" xmlns="http://www.w3.org/2000/svg">
<path fill-rule="evenodd" clip-rule="evenodd" d="M906.254 266.905V312.29L1000.93 366.948L906.255 530.922V609.532L946.269 540.224L1000.93 634.892L906.255 689.551V734.936L906.254 906.248H689.56L634.9 1000.92L540.226 946.262L609.533 906.248H530.923L366.952 1000.92L312.295 906.248L95.5946 906.248L95.5947 689.554L0.925781 634.897L55.5852 540.224L95.5947 609.522L95.5946 530.913L0.92655 366.943L95.5946 312.286L95.5947 95.5885L312.296 95.5885L366.951 0.92272L461.617 55.5782L530.917 95.5885L609.526 95.5885L540.226 55.5782L634.901 0.917969L689.559 95.5885H906.254V266.905Z" fill="black"/>
</svg>
